<?xml version="1.0" standalone="no"?>
<!DOCTYPE svg PUBLIC "-//W3C//DTD SVG 20010904//EN"
 "http://www.w3.org/TR/2001/REC-SVG-20010904/DTD/svg10.dtd">
<svg version="1.0" xmlns="http://www.w3.org/2000/svg"
 width="177.000000pt" height="177.000000pt" viewBox="0 0 177.000000 177.000000"
 preserveAspectRatio="xMidYMid meet">
<metadata>
Created by potrace 1.14, written by Peter Selinger 2001-2017
</metadata>
<g transform="translate(0.000000,177.000000) scale(0.100000,-0.100000)"
fill="#000000" stroke="none">
<path d="M860 1360 c-136 -4 -171 -8 -193 -23 -15 -9 -27 -26 -27 -37 0 -11
-5 -19 -12 -17 -12 2 -41 -80 -32 -94 3 -5 -3 -6 -12 -2 -13 5 -16 2 -12 -9 4
-10 1 -15 -10 -14 -12 1 -17 -7 -17 -26 1 -15 -4 -26 -10 -25 -5 1 -10 -10
-10 -25 1 -15 -4 -26 -10 -25 -5 1 -9 -3 -8 -9 1 -7 -5 -11 -15 -10 -12 1 -17
-7 -17 -26 1 -15 -4 -26 -10 -25 -5 1 -10 -10 -10 -24 0 -17 -5 -26 -15 -25
-10 1 -15 -8 -15 -26 1 -15 -4 -26 -10 -25 -5 1 -9 -3 -8 -9 1 -7 -5 -11 -15
-10 -12 1 -17 -7 -17 -26 1 -15 -4 -26 -10 -25 -5 1 -9 -4 -7 -12 3 -12 0 -12
-12 -1 -14 11 -16 9 -16 -13 0 -14 -7 -28 -16 -31 -11 -4 -15 -15 -12 -35 3
-20 -1 -33 -13 -42 -30 -21 -1 -34 70 -32 l66 2 -27 -20 c-16 -12 -28 -27 -28
-35 0 -11 27 -14 148 -14 153 0 172 5 172 43 0 43 19 47 204 47 111 0 176 -4
176 -10 0 -5 7 -10 15 -10 9 0 15 -9 15 -23 0 -13 5 -28 12 -35 16 -16 328
-17 328 -1 0 13 -25 39 -38 39 -5 0 -9 6 -9 13 0 10 11 12 42 7 23 -3 47 -4
53 -2 14 4 17 62 3 62 -5 0 -11 18 -15 40 -3 22 -11 40 -16 40 -6 0 -10 9 -10
19 0 18 -25 35 -39 27 -4 -3 -7 8 -6 22 0 15 -5 26 -11 25 -7 -1 -11 5 -10 15
0 9 -4 16 -9 15 -6 -1 -11 10 -10 25 0 19 -5 27 -17 26 -11 -1 -14 4 -10 14 4
11 1 14 -9 10 -11 -4 -15 2 -14 21 0 17 -5 26 -15 25 -10 -1 -15 8 -15 25 0
14 -5 25 -10 24 -6 -1 -11 10 -10 25 0 19 -5 27 -17 26 -10 -1 -16 3 -15 10 1
6 -2 10 -8 9 -5 -1 -11 14 -12 33 -1 19 -9 41 -17 50 -9 8 -16 22 -16 31 0 9
-16 29 -35 46 -19 16 -33 32 -31 36 5 7 -38 8 -254 1z m50 -375 c0 -8 7 -15
15 -15 8 0 15 -7 15 -15 0 -11 -12 -15 -45 -15 -33 0 -45 4 -45 15 0 8 7 15
15 15 8 0 15 7 15 15 0 8 7 15 15 15 8 0 15 -7 15 -15z"/>
</g>
</svg>
